# xmcd
#
# Track frame offsets:
#	150
#	11654
#	21427
#	34230
#	46296
#	60491
#	73716
#	87257
#	100698
#	115373
#	128867
#	140018
#	153138
#	166188
#	179636
#	193830
#	207594
#	221289
#	233710
#	247226
#
# Disc length: 3433 seconds
#
# Revision: 0
# Processed by: cddbd v1.5.2PL0 Copyright (c) Steve Scherf et al.
# Submitted via: dBpowerAMP V4.0
#
DISCID=230d6714
DTITLE=John Lee Hooker - Gets Into The Blues...
DYEAR=2005
DGENRE=Blues
TTITLE0=Boom Boom
TTITLE1=Dimples
TTITLE2=Baby Please Don't Go
TTITLE3=Whiskey And Women
TTITLE4=Numbers
TTITLE5=Nightmare Blues
TTITLE6=Slim's Stomp
TTITLE7=Heart Trouble Blues
TTITLE8=Wandering Blues
TTITLE9=Late Last Night
TTITLE10=Good Rockin' Mama
TTITLE11=Baby Lee
TTITLE12=Devil's Jump
TTITLE13=House Rent Boogie
TTITLE14=Who's Been Jivin' You
TTITLE15=I'm Gonna Kill That Woman
TTITLE16=Moaning Blues
TTITLE17=Don't You Remember Me
TTITLE18=Thinking Blues
TTITLE19=I'm A Boogie Man
EXTD=
EXTT0=
EXTT1=
EXTT2=
EXTT3=
EXTT4=
EXTT5=
EXTT6=
EXTT7=
EXTT8=
EXTT9=
EXTT10=
EXTT11=
EXTT12=
EXTT13=
EXTT14=
EXTT15=
EXTT16=
EXTT17=
EXTT18=
EXTT19=
PLAYORDER=
